<?xml version="1.0" encoding="UTF-8" standalone="no"?>
<!-- Created with Inkscape (http://www.inkscape.org/) -->

<svg
   xmlns:dc="http://purl.org/dc/elements/1.1/"
   xmlns:cc="http://creativecommons.org/ns#"
   xmlns:rdf="http://www.w3.org/1999/02/22-rdf-syntax-ns#"
   xmlns:svg="http://www.w3.org/2000/svg"
   xmlns="http://www.w3.org/2000/svg"
   xmlns:xlink="http://www.w3.org/1999/xlink"
   xmlns:sodipodi="http://sodipodi.sourceforge.net/DTD/sodipodi-0.dtd"
   xmlns:inkscape="http://www.inkscape.org/namespaces/inkscape"
   width="64"
   height="64"
   id="svg7450"
   sodipodi:version="0.32"
   inkscape:version="0.48.2 r9819"
   sodipodi:docname="activity-log-manager.svg"
   inkscape:output_extension="org.inkscape.output.svg.inkscape"
   version="1.1">
  <defs
     id="defs7452">
    <linearGradient
       inkscape:collect="always"
       id="linearGradient5974">
      <stop
         style="stop-color:#ad7fa8;stop-opacity:1;"
         offset="0"
         id="stop5976" />
      <stop
         style="stop-color:#dac6d8;stop-opacity:1"
         offset="1"
         id="stop5978" />
    </linearGradient>
    <linearGradient
       inkscape:collect="always"
       xlink:href="#linearGradient5974"
       id="linearGradient5980"
       x1="27.651777"
       y1="23.145937"
       x2="21.59099"
       y2="20.618719"
       gradientUnits="userSpaceOnUse"
       gradientTransform="matrix(1.3448749,0,0,1.3767899,-3.3997832,-17.70913)" />
    <linearGradient
       inkscape:collect="always"
       id="linearGradient5999">
      <stop
         style="stop-color:#c4a000;stop-opacity:1;"
         offset="0"
         id="stop6001" />
      <stop
         style="stop-color:#c4a000;stop-opacity:0;"
         offset="1"
         id="stop6003" />
    </linearGradient>
    <linearGradient
       inkscape:collect="always"
       xlink:href="#linearGradient5999"
       id="linearGradient6005"
       x1="27.354809"
       y1="36.218422"
       x2="23.489431"
       y2="34.728424"
       gradientUnits="userSpaceOnUse"
       gradientTransform="matrix(1.3767899,0,0,1.3767899,-4.2607409,-17.709129)" />
    <linearGradient
       id="linearGradient5981"
       inkscape:collect="always">
      <stop
         id="stop5983"
         offset="0"
         style="stop-color:#ffffff;stop-opacity:1;" />
      <stop
         id="stop5985"
         offset="1"
         style="stop-color:#ffffff;stop-opacity:0.69411765" />
    </linearGradient>
    <linearGradient
       inkscape:collect="always"
       xlink:href="#linearGradient5981"
       id="linearGradient5973"
       gradientUnits="userSpaceOnUse"
       x1="22.319767"
       y1="41.955986"
       x2="18.985712"
       y2="37.029255"
       gradientTransform="matrix(1.3767899,0,0,1.3767899,-4.2607408,-17.70913)" />
    <linearGradient
       inkscape:collect="always"
       id="linearGradient5987">
      <stop
         style="stop-color:#d7c20f;stop-opacity:1"
         offset="0"
         id="stop5989" />
      <stop
         style="stop-color:#b6970d;stop-opacity:1"
         offset="1"
         id="stop5991" />
    </linearGradient>
    <linearGradient
       inkscape:collect="always"
       xlink:href="#linearGradient5987"
       id="linearGradient5993"
       x1="17.032078"
       y1="27.446827"
       x2="29.494455"
       y2="37.845814"
       gradientUnits="userSpaceOnUse"
       gradientTransform="matrix(1.3767899,0,0,1.3767899,-4.2607408,-17.70913)" />
    <linearGradient
       inkscape:collect="always"
       id="linearGradient5966">
      <stop
         style="stop-color:#fdef72;stop-opacity:1"
         offset="0"
         id="stop5968" />
      <stop
         style="stop-color:#e2cb0b;stop-opacity:1"
         offset="1"
         id="stop5970" />
    </linearGradient>
    <linearGradient
       inkscape:collect="always"
       xlink:href="#linearGradient5966"
       id="linearGradient5972"
       x1="20.933708"
       y1="25.060659"
       x2="30.208115"
       y2="30.742676"
       gradientUnits="userSpaceOnUse"
       gradientTransform="matrix(1.3767899,0,0,1.3767899,-4.2607408,-17.70913)" />
    <linearGradient
       inkscape:collect="always"
       id="linearGradient5984">
      <stop
         style="stop-color:#ffffff;stop-opacity:1;"
         offset="0"
         id="stop5986" />
      <stop
         style="stop-color:#ffffff;stop-opacity:0.13438736"
         offset="1"
         id="stop5988" />
    </linearGradient>
    <linearGradient
       inkscape:collect="always"
       xlink:href="#linearGradient5984"
       id="linearGradient5994"
       gradientUnits="userSpaceOnUse"
       x1="28"
       y1="8"
       x2="33.447109"
       y2="16.685888" />
    <linearGradient
       inkscape:collect="always"
       id="linearGradient5996">
      <stop
         style="stop-color:#8f5902;stop-opacity:1;"
         offset="0"
         id="stop5998" />
      <stop
         style="stop-color:#73521e;stop-opacity:1"
         offset="1"
         id="stop6000" />
    </linearGradient>
    <linearGradient
       inkscape:collect="always"
       xlink:href="#linearGradient5996"
       id="linearGradient6002"
       x1="30.324829"
       y1="9.2407961"
       x2="34"
       y2="18"
       gradientUnits="userSpaceOnUse"
       gradientTransform="matrix(1.3767899,0,0,1.3767899,-4.2607408,-17.70913)" />
    <linearGradient
       inkscape:collect="always"
       id="linearGradient5958">
      <stop
         style="stop-color:#c17d11;stop-opacity:1;"
         offset="0"
         id="stop5960" />
      <stop
         style="stop-color:#e9b96e;stop-opacity:1"
         offset="1"
         id="stop5962" />
    </linearGradient>
    <linearGradient
       inkscape:collect="always"
       xlink:href="#linearGradient5958"
       id="linearGradient5964"
       x1="28"
       y1="16"
       x2="26"
       y2="8"
       gradientUnits="userSpaceOnUse"
       gradientTransform="matrix(1.3767899,0,0,1.3767899,-4.2607408,-17.70913)" />
    <linearGradient
       inkscape:collect="always"
       id="linearGradient6019">
      <stop
         style="stop-color:#000000;stop-opacity:1;"
         offset="0"
         id="stop6021" />
      <stop
         style="stop-color:#000000;stop-opacity:0;"
         offset="1"
         id="stop6023" />
    </linearGradient>
    <radialGradient
       inkscape:collect="always"
       xlink:href="#linearGradient6019"
       id="radialGradient6025"
       cx="38"
       cy="69"
       fx="28.603323"
       fy="69"
       r="20"
       gradientTransform="matrix(1,0,0,0.45,0,37.95)"
       gradientUnits="userSpaceOnUse" />
  </defs>
  <sodipodi:namedview
     id="base"
     pagecolor="#ffffff"
     bordercolor="#666666"
     borderopacity="1.0"
     inkscape:pageopacity="0.0"
     inkscape:pageshadow="2"
     inkscape:zoom="7"
     inkscape:cx="24.428571"
     inkscape:cy="24"
     inkscape:current-layer="layer1"
     showgrid="true"
     inkscape:grid-bbox="true"
     inkscape:document-units="px"
     inkscape:window-width="1129"
     inkscape:window-height="873"
     inkscape:window-x="382"
     inkscape:window-y="92"
     inkscape:window-maximized="0" />
  <metadata
     id="metadata7455">
    <rdf:RDF>
      <cc:Work
         rdf:about="">
        <dc:format>image/svg+xml</dc:format>
        <dc:type
           rdf:resource="http://purl.org/dc/dcmitype/StillImage" />
        <dc:title></dc:title>
      </cc:Work>
    </rdf:RDF>
  </metadata>
  <g
     id="layer1"
     inkscape:label="Layer 1"
     inkscape:groupmode="layer"
     transform="translate(0,16)">
    <path
       sodipodi:type="arc"
       style="opacity:0.25;fill:url(#radialGradient6025);fill-opacity:1;stroke:none"
       id="path6017"
       sodipodi:cx="38"
       sodipodi:cy="69"
       sodipodi:rx="20"
       sodipodi:ry="9"
       d="m 58,69 a 20,9 0 1 1 -40,0 20,9 0 1 1 40,0 z"
       transform="matrix(1.3767899,0,0,0.91786015,-20.782219,-24.593092)" />
    <path
       style="fill:url(#linearGradient5964);fill-opacity:1;fill-rule:evenodd;stroke:url(#linearGradient6002);stroke-width:1.37678993px;stroke-linecap:butt;stroke-linejoin:miter;stroke-opacity:1"
       d="M 46.121166,-14.310179 C 34.827059,-14.164721 33.183746,8.0592517 29.943884,12.063954 l 5.50716,1.979135 c 3.623536,-6.0200785 21.692697,-26.032341 11.788764,-28.310244 -0.384799,-0.04264 -0.754316,-0.04772 -1.118642,-0.04302 z m -1.419815,2.839629 c 0.266496,-0.0258 0.50664,0.0079 0.73142,0.129074 0.899121,0.484799 0.996321,2.0581316 0.215124,3.4849996 -0.781198,1.4268679 -2.155635,2.2057868 -3.054753,1.7209874 -0.899117,-0.4847994 -0.996321,-2.0581316 -0.215124,-3.4849995 0.585899,-1.0701515 1.523848,-1.7726635 2.323333,-1.8500615 z"
       id="path5371"
       inkscape:connector-curvature="0" />
    <path
       sodipodi:type="inkscape:offset"
       inkscape:radius="-1.0049498"
       inkscape:original="M 36.59375 2.46875 C 28.390533 2.5744003 27.19695 18.716276 24.84375 21.625 L 28.84375 23.0625 C 31.475623 18.689953 44.599746 4.1545034 37.40625 2.5 C 37.12676 2.4690309 36.85837 2.4653419 36.59375 2.46875 z "
       style="opacity:0.26666667;fill:none;stroke:url(#linearGradient5994);stroke-width:1px;stroke-linecap:butt;stroke-linejoin:miter;stroke-opacity:1"
       id="path5992"
       d="m 36.59375,3.46875 c -1.721618,0.022173 -3.007925,0.8558743 -4.1875,2.28125 -1.179575,1.4253757 -2.148334,3.4416354 -2.9375,5.59375 -0.789166,2.152115 -1.42404,4.43427 -2,6.375 -0.399891,1.347456 -0.769857,2.406448 -1.21875,3.34375 l 2.1875,0.78125 c 1.618594,-2.495624 5.038798,-6.591178 7.53125,-10.625 1.325839,-2.1457566 2.2837,-4.1780411 2.5,-5.5625 C 38.5769,4.9640206 38.513818,4.4833206 38.34375,4.1875 38.179059,3.9010309 37.880274,3.6629145 37.21875,3.5 37.019255,3.4812162 36.817917,3.4658629 36.59375,3.46875 z"
       transform="matrix(1.3767899,0,0,1.3767899,-4.2607409,-17.709129)" />
    <path
       style="fill:url(#linearGradient5972);fill-opacity:1;fill-rule:evenodd;stroke:url(#linearGradient5993);stroke-width:1.37678981;stroke-linecap:butt;stroke-linejoin:miter;stroke-miterlimit:20;stroke-opacity:1;stroke-dasharray:none"
       d="m 26.717033,5.0079052 c 0.97684,2.7577199 -0.745378,5.1462078 -1.37679,6.8839498 -7.147697,2.128068 -12.097579,13.359992 -19.4575983,19.211156 0.9194038,0.96017 1.9994116,1.988329 2.9361189,2.817483 l 5.5932094,-4.861789 -4.223381,6.229491 c 3.041656,2.465807 6.202516,4.139458 8.267701,4.827853 l 3.786172,-5.033888 -2.409382,5.722283 c 1.999091,0.810767 6.863692,2.040437 9.63753,2.065185 l 2.758935,-4.684524 -0.706526,4.770573 c 1.142134,0.218027 3.356841,0.515217 4.83154,0.559321 4.629024,-7.572345 5.50716,-19.920429 2.75358,-25.427589 -0.688395,-2.75358 2.065185,-6.195555 4.13037,-7.572345 C 39.796537,7.7614851 31.94114,4.5897383 26.717033,5.0079052 z"
       id="path5367"
       sodipodi:nodetypes="cccccccccccccccc"
       inkscape:connector-curvature="0" />
    <path
       style="opacity:0.26666667;fill:#c4a000;fill-rule:evenodd;stroke:none"
       d="m 10.883949,35.297284 c 6.631301,-6.89895 6.147398,-9.918293 13.927768,-15.87126 -4.106197,6.647735 -4.771733,10.105718 -9.797399,18.62484 l -4.130369,-2.75358 z"
       id="path5975"
       sodipodi:nodetypes="cccc"
       inkscape:connector-curvature="0" />
    <path
       style="opacity:0.41568627;fill:#c4a000;fill-rule:evenodd;stroke:none"
       d="M 20.727732,40.394783 26.711298,26.846967 C 29.002983,22.739002 30.648466,18.62746 32.946743,15.354416 30.741189,22.813914 26.21329,32.043578 22.577794,40.997128 L 20.727732,40.394783 z"
       id="path5979"
       sodipodi:nodetypes="ccccc"
       inkscape:connector-curvature="0" />
    <path
       style="opacity:0.47843137;fill:none;stroke:url(#linearGradient5973);stroke-width:1.37678981px;stroke-linecap:butt;stroke-linejoin:miter;stroke-opacity:1"
       d="m 28.265921,6.3846952 c 0.133191,2.6367537 -1.270698,4.8595798 -1.677962,5.9804308 -0.143328,0.391985 -0.461679,0.694418 -0.860494,0.81747 -7.508184,3.076635 -10.504636,11.804649 -17.8908882,18.016903 0.27762,0.275157 0.6774233,0.57454 0.9562219,0.837406 l 12.4170743,-10.50752 -9.054617,13.50674 c 1.748568,1.414807 3.747899,2.594621 5.819217,3.427057 l 9.629755,-12.803428 -5.88563,14.334603 c 2.196764,0.723719 4.265713,1.139013 6.808239,1.498482 l 6.359021,-10.584073 -1.887221,10.886026 2.581481,0.311148 c 1.973233,-3.490843 2.935842,-7.801622 3.485,-12.100692 0.583683,-4.569354 -0.0069,-9.005828 -1.161667,-11.315493 -0.03739,-0.0829 -0.06622,-0.169393 -0.08605,-0.258148 -0.477551,-1.910201 0.232873,-3.780151 1.204691,-5.335061 0.587742,-0.940387 1.280927,-1.777131 2.016941,-2.480668 C 39.426149,9.5382766 37.477695,8.6056735 35.020797,7.7184604 32.594787,6.8424007 30.204789,6.4104755 28.265921,6.3846952 z"
       id="path6014"
       sodipodi:nodetypes="csccccccccccccsssscsc"
       inkscape:connector-curvature="0" />
    <path
       style="opacity:0.24705882;fill:url(#linearGradient6005);fill-opacity:1;fill-rule:evenodd;stroke:none"
       d="m 24.608823,41.492839 c 2.998051,-7.919118 8.805833,-13.86282 11.037605,-21.939715 0.07096,5.041905 0.343812,14.048387 -2.604766,23.015332 -0.440251,0.0025 -0.239461,-0.152561 -0.646926,-0.163223 l 1.102522,-7.881457 -4.517917,7.64722 c -3.016282,-0.215225 -1.782407,0.04488 -4.370518,-0.678157 z"
       id="path5977"
       sodipodi:nodetypes="ccccccc"
       inkscape:connector-curvature="0" />
    <path
       style="opacity:0.48235294;fill:#c4a000;fill-rule:evenodd;stroke:none"
       d="m 27.40965,13.420707 c -1.723734,0.848625 -2.839228,2.102741 -4.10711,3.255266 1.688615,-0.975653 3.275364,-1.994961 5.506572,-2.738075 L 27.40965,13.420707 z"
       id="path5995"
       sodipodi:nodetypes="cccc"
       inkscape:connector-curvature="0" />
    <path
       style="opacity:0.48235294;fill:#c4a000;fill-rule:evenodd;stroke:none"
       d="m 30.170983,14.041092 -1.399459,2.738074 4.103816,-2.186687 -2.704357,-0.551387 z"
       id="path5997"
       sodipodi:nodetypes="cccc"
       inkscape:connector-curvature="0" />
    <path
       style="opacity:0.48235294;fill:#c4a000;fill-rule:evenodd;stroke:none"
       d="M 30.076132,7.0199447 28.843639,9.3701554 30.999316,10.06142 30.076132,7.0199447 z"
       id="path6007"
       sodipodi:nodetypes="cccc"
       inkscape:connector-curvature="0" />
    <path
       style="opacity:0.48235294;fill:#c4a000;fill-rule:evenodd;stroke:none"
       d="m 39.690874,9.6688486 -3.387245,2.5270254 2.155678,0.691264 1.231567,-3.2182894 z"
       id="path6009"
       sodipodi:nodetypes="cccc"
       inkscape:connector-curvature="0" />
    <path
       style="opacity:0.48235294;fill:#c4a000;fill-rule:evenodd;stroke:none"
       d="m 34.307172,6.9885084 -2.084337,3.4758636 2.155677,0.691264 -0.07135,-4.1671276 z"
       id="path6011"
       sodipodi:nodetypes="cccc"
       inkscape:connector-curvature="0" />
    <path
       style="opacity:0.2;fill:#000000;fill-opacity:1;fill-rule:evenodd;stroke:none"
       d="m 24.607413,12.614255 c -0.780337,-4.0828483 12.849354,2.964095 15.195386,4.122617 -0.0089,1.48565 0,2.75358 -1.344875,2.75358 -3.53496,-1.917841 -8.997673,-4.963524 -13.850511,-6.876197 z"
       id="path6013"
       sodipodi:nodetypes="cccc"
       inkscape:connector-curvature="0" />
    <path
       style="fill:url(#linearGradient5980);fill-opacity:1;fill-rule:evenodd;stroke:#5c3566;stroke-width:1.37678993px;stroke-linecap:butt;stroke-linejoin:round;stroke-opacity:1"
       d="m 24.170154,11.891855 c -0.672438,-1.37679 0,-2.7535799 1.344876,-2.7535799 5.495375,1.3429439 10.084815,3.0375179 14.793625,5.5071599 0.672438,1.37679 0,2.75358 -1.344875,2.75358 -4.865497,-2.566915 -9.454018,-4.233372 -14.793626,-5.50716 z"
       id="path5373"
       sodipodi:nodetypes="ccccc"
       inkscape:connector-curvature="0" />
  </g>
</svg>
