<?xml version="1.0" encoding="UTF-8" standalone="no"?>
<!-- Created with Inkscape (http://www.inkscape.org/) -->

<svg
   xmlns:dc="http://purl.org/dc/elements/1.1/"
   xmlns:cc="http://creativecommons.org/ns#"
   xmlns:rdf="http://www.w3.org/1999/02/22-rdf-syntax-ns#"
   xmlns:svg="http://www.w3.org/2000/svg"
   xmlns="http://www.w3.org/2000/svg"
   xmlns:sodipodi="http://sodipodi.sourceforge.net/DTD/sodipodi-0.dtd"
   xmlns:inkscape="http://www.inkscape.org/namespaces/inkscape"
   id="svg2"
   height="22"
   width="22"
   version="1.0"
   inkscape:version="0.48.2 r9819"
   sodipodi:docname="computerjanitor.svg">
  <metadata
     id="metadata50">
    <rdf:RDF>
      <cc:Work
         rdf:about="">
        <dc:format>image/svg+xml</dc:format>
        <dc:type
           rdf:resource="http://purl.org/dc/dcmitype/StillImage" />
      </cc:Work>
    </rdf:RDF>
  </metadata>
  <sodipodi:namedview
     pagecolor="#ffffff"
     bordercolor="#666666"
     borderopacity="1"
     objecttolerance="10"
     gridtolerance="10"
     guidetolerance="10"
     inkscape:pageopacity="0"
     inkscape:pageshadow="2"
     inkscape:window-width="1308"
     inkscape:window-height="742"
     id="namedview48"
     showgrid="false"
     inkscape:zoom="9.8333333"
     inkscape:cx="12"
     inkscape:cy="12"
     inkscape:window-x="7"
     inkscape:window-y="24"
     inkscape:window-maximized="0"
     inkscape:current-layer="svg2" />
  <defs
     id="defs4">
    <radialGradient
       id="radialGradient2541"
       fx="28.603001"
       gradientUnits="userSpaceOnUse"
       cy="69"
       cx="38"
       gradientTransform="matrix(1,0,0,0.45,0,37.95)"
       r="20">
      <stop
         id="stop6021"
         offset="0" />
      <stop
         id="stop6023"
         style="stop-opacity:0"
         offset="1" />
    </radialGradient>
    <linearGradient
       id="linearGradient2543"
       y2="8"
       gradientUnits="userSpaceOnUse"
       x2="26"
       gradientTransform="matrix(0.52499,0,0,0.5277,-1.1749,-0.77947)"
       y1="16"
       x1="28">
      <stop
         id="stop5960"
         style="stop-color:#c17d11"
         offset="0" />
      <stop
         id="stop5962"
         style="stop-color:#e9b96e"
         offset="1" />
    </linearGradient>
    <linearGradient
       id="linearGradient2545"
       y2="18"
       gradientUnits="userSpaceOnUse"
       x2="34"
       gradientTransform="matrix(0.52499,0,0,0.5277,-1.1749,-0.77947)"
       y1="9.2407999"
       x1="30.325001">
      <stop
         id="stop5998"
         style="stop-color:#8f5902"
         offset="0" />
      <stop
         id="stop6000"
         style="stop-color:#73521e"
         offset="1" />
    </linearGradient>
    <linearGradient
       id="linearGradient2547"
       y2="16.686001"
       gradientUnits="userSpaceOnUse"
       x2="33.446999"
       y1="8"
       x1="28">
      <stop
         id="stop5986"
         style="stop-color:#fff"
         offset="0" />
      <stop
         id="stop5988"
         style="stop-color:#fff;stop-opacity:.13439"
         offset="1" />
    </linearGradient>
    <linearGradient
       id="linearGradient2549"
       y2="30.743"
       gradientUnits="userSpaceOnUse"
       x2="30.208"
       gradientTransform="matrix(0.52499,0,0,0.5277,-1.1749,-0.77947)"
       y1="25.061001"
       x1="20.934">
      <stop
         id="stop5968"
         style="stop-color:#fdef72"
         offset="0" />
      <stop
         id="stop5970"
         style="stop-color:#e2cb0b"
         offset="1" />
    </linearGradient>
    <linearGradient
       id="linearGradient2551"
       y2="37.846001"
       gradientUnits="userSpaceOnUse"
       x2="29.493999"
       gradientTransform="matrix(0.52499,0,0,0.5277,-1.1749,-0.77947)"
       y1="27.447001"
       x1="17.032">
      <stop
         id="stop5989"
         style="stop-color:#b3a10b"
         offset="0" />
      <stop
         id="stop5991"
         style="stop-color:#91780a"
         offset="1" />
    </linearGradient>
    <linearGradient
       id="linearGradient2553"
       y2="37.028999"
       gradientUnits="userSpaceOnUse"
       x2="18.986"
       gradientTransform="matrix(0.52499,0,0,0.5277,-1.1749,-0.77947)"
       y1="41.956001"
       x1="22.32">
      <stop
         id="stop5983"
         style="stop-color:#fff"
         offset="0" />
      <stop
         id="stop5985"
         style="stop-color:#fff;stop-opacity:.69412"
         offset="1" />
    </linearGradient>
    <linearGradient
       id="linearGradient2555"
       y2="34.728001"
       gradientUnits="userSpaceOnUse"
       x2="23.489"
       gradientTransform="matrix(0.52499,0,0,0.5277,-1.1749,-0.77947)"
       y1="36.217999"
       x1="27.355">
      <stop
         id="stop6001"
         style="stop-color:#c4a000"
         offset="0" />
      <stop
         id="stop6003"
         style="stop-color:#c4a000;stop-opacity:0"
         offset="1" />
    </linearGradient>
    <linearGradient
       id="linearGradient2557"
       y2="20.618999"
       gradientUnits="userSpaceOnUse"
       x2="21.591"
       gradientTransform="matrix(0.51282,0,0,0.5277,-0.84657,-0.77947)"
       y1="23.146"
       x1="27.652">
      <stop
         id="stop2473"
         style="stop-color:#919191"
         offset="0" />
      <stop
         id="stop2475"
         style="stop-color:#cecece"
         offset="1" />
    </linearGradient>
  </defs>
  <g
     id="layer1"
     transform="matrix(0.91667334,0,0,0.91667334,0.12499499,0.00170643)">
    <g
       id="g2524"
       transform="translate(-0.47496,0)">
      <path
         id="path6017"
         style="opacity:0.25;fill:url(#radialGradient2541)"
         d="m 58,69 a 20,9 0 1 1 -40,0 20,9 0 1 1 40,0 z"
         transform="matrix(0.52499,0,0,0.3518,-7.4748,-3.418)"
         inkscape:connector-curvature="0" />
      <path
         id="path5371"
         style="fill:url(#linearGradient2543);fill-rule:evenodd;stroke:url(#linearGradient2545);stroke-width:1px"
         d="m 18.037,0.52328 c -4.307,0.05575 -4.934,8.5737 -6.169,10.109 l 2.1,0.75856 C 15.35,9.08294 22.24,1.41264 18.463,0.53984 18.316,0.52327 18.176,0.52132 18.037,0.52312 z m -0.542,1.0884 c 0.10162,-0.00989 0.19319,0.00302 0.2789,0.049472 0.34285,0.18581 0.37991,0.78884 0.08203,1.3357 -0.29788,0.54689 -0.82198,0.84543 -1.1648,0.65962 -0.343,-0.1858 -0.38,-0.7889 -0.082,-1.3358 0.224,-0.4101 0.581,-0.6794 0.886,-0.709 z"
         inkscape:connector-curvature="0" />
      <path
         id="path5992"
         style="opacity:0.26667002;fill:none;stroke:url(#linearGradient2547);stroke-width:1.89989996px"
         d="m 36.625,4.4375 c -1.4036,0.018077 -2.4077,0.62407 -3.4688,1.9062 -1.0611,1.2822 -2.0112,3.2438 -2.7812,5.3438 -0.77003,2.0999 -1.388,4.3243 -1.9688,6.2812 -0.27707,0.9336 -0.50201,1.7858 -0.78125,2.5625 l 0.46875,0.1875 c 1.8051,-2.666 4.7391,-6.2904 7.0312,-10 1.297,-2.1008 2.232,-4.1053 2.406,-5.22 0.087,-0.5574 -0.01,-0.8073 -0.031,-0.8438 -0.018,-0.032 -0.113,-0.0896 -0.469,-0.1874 -0.125,-0.0079 -0.24,-0.0334 -0.406,-0.0313 z"
         transform="matrix(0.52499,0,0,0.5277,-1.1749,-0.77947)"
         inkscape:connector-curvature="0" />
      <path
         id="path5367"
         style="fill:url(#linearGradient2549);fill-rule:evenodd;stroke:url(#linearGradient2551);stroke-miterlimit:20"
         d="m 10.637,7.9275 c 0.37249,1.057 -0.28422,1.9724 -0.52499,2.6385 -2.7255,0.81565 -4.613,5.1206 -7.4195,7.3632 0.35058,0.36801 0.76241,0.76209 1.1196,1.0799 l 2.1328,-1.8634 -1.6104,2.3876 c 1.1598,0.9451 2.3651,1.5866 3.1526,1.8504 l 1.4437,-1.9294 -0.91874,2.1932 c 0.76229,0.31075 2.6172,0.78206 3.675,0.79154 l 1.052,-1.7955 -0.26941,1.8285 c 0.43551,0.08357 1.28,0.19747 1.8423,0.21438 1.7651,-2.9023 2.1,-7.6351 1.05,-9.7459 -0.2625,-1.0554 0.78749,-2.3746 1.575,-2.9023 -1.312,-1.0561 -4.307,-2.2718 -6.3,-2.1115 z"
         inkscape:connector-curvature="0" />
      <path
         id="path5975"
         style="opacity:0.26667002;fill:#c4a000;fill-rule:evenodd"
         d="M 4.6001,19.537 C 7.1287,16.893 6.9442,15.735 9.911,13.454 8.3452,16.002 8.0914,17.327 6.175,20.592 L 4.6,19.5366 z"
         inkscape:connector-curvature="0" />
      <path
         id="path5979"
         style="opacity:0.41568998;fill:#c4a000;fill-rule:evenodd"
         d="m 8.3537,21.491 2.2816,-5.1926 c 0.87386,-1.5745 1.5013,-3.1504 2.3777,-4.4049 -0.84102,2.8591 -2.5676,6.3966 -3.9539,9.8283 l -0.7051,-0.23 z"
         inkscape:connector-curvature="0" />
      <path
         id="path6014"
         style="opacity:0.47843;fill:none;stroke:url(#linearGradient2553);stroke-width:1px"
         d="m 11.547,8.8512 c 0.05079,1.0106 -0.80302,1.4666 -0.95832,1.8962 -0.05465,0.15024 0.27818,0.66925 -0.01074,0.58778 -2.5453,1.3384 -5.9207,5.8907 -6.7749,6.754 l 6.357,-6.167 -4.279,7.238 c 0.66676,0.54227 0.39408,0.55888 1.1839,0.87793 l 5.6511,-7.211 -3.3911,8.245 c 0.83766,0.27739 0.75453,0.22673 1.724,0.3645 l 3.6086,-5.9583 -1.1073,6.1533 0.14835,0.04006 c 0.75243,-1.338 0.72682,-2.2928 1.0979,-3.9036 0.36799,-1.5972 -0.29214,-3.5975 -0.26605,-4.6086 -0.1821,-0.73214 0.4285,-1.5354 0.79908,-2.1313 0.22412,-0.36043 -0.23142,-0.50359 0.04923,-0.77325 -0.615,-0.4125 -0.936,-0.413 -1.872,-0.753 -0.925,-0.3358 -1.221,-0.6399 -1.96,-0.6498 z"
         inkscape:connector-curvature="0" />
      <path
         id="path5977"
         style="opacity:0.24706002;fill:url(#linearGradient2555);fill-rule:evenodd"
         d="m 9.8336,21.911 c 1.1432,-3.0352 3.3578,-5.3133 4.2088,-8.4091 0.02706,1.9325 0.1311,5.3845 -0.99324,8.8213 -0.16788,9.37e-4 -0.09131,-0.05847 -0.24668,-0.06256 l 0.42041,-3.0208 -1.7228,2.931 c -1.1502,-0.08249 -0.67966,0.0172 -1.6666,-0.25992 z"
         inkscape:connector-curvature="0" />
      <path
         id="path5995"
         style="opacity:0.48235001;fill:#c4a000;fill-rule:evenodd"
         d="m 10.902,11.152 c -0.65729,0.32526 -1.0826,0.80594 -1.5661,1.2477 0.6439,-0.37395 1.249,-0.76463 2.0997,-1.0494 l -0.53364,-0.19823 z"
         inkscape:connector-curvature="0" />
      <path
         id="path5997"
         style="opacity:0.48235001;fill:#c4a000;fill-rule:evenodd"
         d="m 11.955,11.39 -0.53364,1.0494 1.5649,-0.83811 -1.0312,-0.21134 z"
         inkscape:connector-curvature="0" />
      <path
         id="path6007"
         style="opacity:0.48235001;fill:#c4a000;fill-rule:evenodd"
         d="M 11.918,8.6987 11.448,9.5995 12.27,9.8644 11.918,8.6987 z"
         inkscape:connector-curvature="0" />
      <path
         id="path6009"
         style="opacity:0.48235001;fill:#c4a000;fill-rule:evenodd"
         d="m 15.585,9.714 -1.2916,0.96856 0.822,0.26495 0.46962,-1.2335 z"
         inkscape:connector-curvature="0" />
      <path
         id="path6011"
         style="opacity:0.48235001;fill:#c4a000;fill-rule:evenodd"
         d="m 13.532,8.6866 -0.79479,1.3322 0.822,0.26495 -0.0272,-1.5972 z"
         inkscape:connector-curvature="0" />
      <path
         id="path6013"
         style="opacity:0.2;fill-rule:evenodd"
         d="m 9.8331,10.843 c -0.29756,-1.5649 4.8997,1.1361 5.7943,1.5801 -0.0034,0.56942 0,1.0554 -0.51282,1.0554 -1.3479,-0.73507 -3.431,-1.9024 -5.2814,-2.6355 z"
         inkscape:connector-curvature="0" />
      <path
         id="path5373"
         style="fill:url(#linearGradient2557);fill-rule:evenodd;stroke:#464646;stroke-width:1px;stroke-linejoin:round"
         d="m 9.6663,10.566 c -0.25641,-0.5277 0,-1.0554 0.51282,-1.0554 2.0955,0.51472 3.8455,1.1642 5.6411,2.1108 0.25641,0.5277 0,1.0554 -0.51282,1.0554 -1.8553,-0.98385 -3.605,-1.6226 -5.6411,-2.1108 z"
         inkscape:connector-curvature="0" />
    </g>
  </g>
</svg>
